<?xml version="1.0" encoding="UTF-8"?>
<svg width="58px" height="60px" viewBox="0 0 58 60" version="1.1" xmlns="http://www.w3.org/2000/svg" xmlns:xlink="http://www.w3.org/1999/xlink">
    <title>logo</title>
    <g id="Page-1" stroke="none" stroke-width="1" fill="none" fill-rule="evenodd">
        <g id="home" transform="translate(-84.000000, -40.000000)" fill="#FF4732">
            <g id="logo" transform="translate(83.000000, 40.000000)">
                <path d="M36.943258,0.6 C48.9985428,0.6 58.7712821,10.3727393 58.7712821,22.4280241 C58.7712821,24.0770763 58.5844114,25.7208175 58.2142466,27.3277871 L55.8284225,37.6851939 C52.9007476,50.3948981 41.5855027,59.4 28.5429623,59.4 L23.3987035,59.4 C11.3434187,59.4 1.57067947,49.6272607 1.57067947,37.5719759 C1.57067947,35.9229237 1.75755017,34.2791825 2.12771491,32.6722129 L4.51353908,22.3148061 C7.44121392,9.60510188 18.7564588,0.6 31.7989993,0.6 L36.943258,0.6 Z M23.360209,13.8241551 C19.0252947,13.8241551 15.4956661,17.2719929 15.3640158,21.5749758 L15.360209,21.8241551 L15.360209,41.1175071 C15.360209,42.6515201 15.801252,44.1531892 16.6307812,45.4435679 C18.9722142,49.085797 23.7727451,50.1920551 27.4618267,47.9861363 L27.6862697,47.8469349 L42.6922102,38.2002589 C43.6562314,37.580531 44.4758493,36.760913 45.0955772,35.7968918 C47.4370103,32.1546627 46.4504254,27.3281158 42.9120285,24.8877986 L42.6922102,24.7414033 L27.6862697,15.0947273 C26.395891,14.2651981 24.8942219,13.8241551 23.360209,13.8241551 Z M22.960209,18.2575238 C23.7209451,18.2575238 24.4659072,18.4744573 25.1077109,18.8828778 L40.0571939,28.3961852 C41.9209594,29.5822177 42.4703705,32.0545676 41.2843379,33.9183331 C40.9700231,34.4122563 40.5511171,34.8311623 40.0571939,35.1454771 L25.1077109,44.6587844 C23.2439454,45.844817 20.7715956,45.2954059 19.585563,43.4316404 C19.1771425,42.7898367 18.960209,42.0448745 18.960209,41.2841385 L18.960209,22.2575238 C18.960209,20.0483848 20.75107,18.2575238 22.960209,18.2575238 Z" id="Combined-Shape"></path>
            </g>
        </g>
    </g>
</svg>