<?xml version="1.0" encoding="UTF-8"?>
<svg width="16px" height="16px" viewBox="0 0 16 16" version="1.1" xmlns="http://www.w3.org/2000/svg" xmlns:xlink="http://www.w3.org/1999/xlink">
    <title>plus-circle</title>
    <g id="Page-1" stroke="none" stroke-width="1" fill="none" fill-rule="evenodd">
        <g id="home" transform="translate(-932.000000, -97.000000)" fill="#FFFFFF" fill-rule="nonzero">
            <g id="Group" transform="translate(823.000000, 49.000000)">
                <path d="M117.318877,48.0703125 C118.360544,48.0703125 119.339711,48.2682292 120.256377,48.6640625 C121.173044,49.0598958 121.981638,49.6080729 122.682158,50.3085938 C123.382679,51.0091146 123.930856,51.8164062 124.32669,52.7304688 C124.722523,53.6445312 124.92044,54.6223958 124.92044,55.6640625 C124.92044,56.7057292 124.722523,57.6835938 124.32669,58.5976562 C123.930856,59.5117188 123.383981,60.3177083 122.686065,61.015625 C121.988148,61.7135417 121.180856,62.2617188 120.26419,62.6601562 C119.347523,63.0585938 118.368356,63.2578125 117.32669,63.2578125 C116.290231,63.2578125 115.313669,63.0585938 114.397002,62.6601562 C113.480336,62.2617188 112.673044,61.7135417 111.975127,61.015625 C111.277211,60.3177083 110.729033,59.5117188 110.330596,58.5976562 C109.932158,57.6835938 109.73294,56.7057292 109.73294,55.6640625 C109.73294,54.6223958 109.930856,53.6445312 110.32669,52.7304688 C110.722523,51.8164062 111.2707,51.0091146 111.971221,50.3085938 C112.671742,49.6080729 113.480336,49.0598958 114.397002,48.6640625 C115.313669,48.2682292 116.287627,48.0703125 117.318877,48.0703125 Z M117.318877,49.46875 C116.464711,49.46875 115.663929,49.6289062 114.916533,49.9492188 C114.169138,50.2695312 113.512888,50.7135417 112.947783,51.28125 C112.382679,51.8489583 111.941273,52.5078125 111.623565,53.2578125 C111.305856,54.0078125 111.147002,54.8098958 111.147002,55.6640625 C111.147002,56.5234375 111.305856,57.328125 111.623565,58.078125 C111.941273,58.828125 112.382679,59.4856771 112.947783,60.0507812 C113.512888,60.6158854 114.17044,61.0585938 114.92044,61.3789062 C115.67044,61.6992188 116.472523,61.859375 117.32669,61.859375 C118.191273,61.859375 118.998565,61.6992188 119.748565,61.3789062 C120.498565,61.0585938 121.154815,60.6158854 121.717315,60.0507812 C122.279815,59.4856771 122.722523,58.828125 123.04544,58.078125 C123.368356,57.328125 123.527211,56.5234375 123.522002,55.6640625 C123.522002,54.8098958 123.361846,54.0078125 123.041533,53.2578125 C122.721221,52.5078125 122.277211,51.8489583 121.709502,51.28125 C121.141794,50.7135417 120.484242,50.2695312 119.736846,49.9492188 C118.98945,49.6289062 118.183461,49.46875 117.318877,49.46875 Z M117.318877,52.2421875 C117.522002,52.2421875 117.683461,52.3072917 117.803252,52.4375 C117.923044,52.5677083 117.98294,52.7447917 117.98294,52.96875 L117.98294,52.96875 L117.98294,55.015625 L120.022002,55.015625 C120.251169,55.015625 120.430856,55.0742188 120.561065,55.1914062 C120.691273,55.3085938 120.756377,55.4713542 120.756377,55.6796875 C120.756377,55.8880208 120.688669,56.0494792 120.553252,56.1640625 C120.417836,56.2786458 120.240752,56.3359375 120.022002,56.3359375 L120.022002,56.3359375 L117.98294,56.3359375 L117.98294,58.2578125 C117.98294,58.4765625 117.923044,58.6523438 117.803252,58.7851562 C117.683461,58.9179688 117.522002,58.984375 117.318877,58.984375 C117.110544,58.984375 116.949086,58.9166667 116.834502,58.78125 C116.719919,58.6458333 116.662627,58.4713542 116.662627,58.2578125 L116.662627,58.2578125 L116.662627,56.3359375 L114.615752,56.3359375 C114.407419,56.3359375 114.234242,56.2786458 114.096221,56.1640625 C113.9582,56.0494792 113.88919,55.8880208 113.88919,55.6796875 C113.88919,55.4713542 113.955596,55.3085938 114.088408,55.1914062 C114.221221,55.0742188 114.397002,55.015625 114.615752,55.015625 L114.615752,55.015625 L116.662627,55.015625 L116.662627,52.96875 C116.662627,52.7552083 116.719919,52.5807292 116.834502,52.4453125 C116.949086,52.3098958 117.110544,52.2421875 117.318877,52.2421875 Z" id="plus-circle"></path>
            </g>
        </g>
    </g>
</svg>