<?xml version="1.0" encoding="UTF-8"?>
<svg width="80px" height="44px" viewBox="0 0 80 44" version="1.1" xmlns="http://www.w3.org/2000/svg" xmlns:xlink="http://www.w3.org/1999/xlink">
    <title>logo</title>
    <g id="style-guide" stroke="none" stroke-width="1" fill="none" fill-rule="evenodd">
        <g id="logo" transform="translate(0.500000, 0.000000)" fill="#FF4732" fill-rule="nonzero">
            <path d="M11.2,9.1 C13.4333333,9.1 15.2916667,9.39166667 16.775,9.975 C18.0016026,10.4573718 19.0173662,11.1049957 19.8222911,11.9178717 C18.3345772,14.962412 17.5,18.383743 17.5,22 C17.5,27.2683823 19.2713424,32.1230454 22.2509529,36.0009151 L15.25,36 L15.25,22.05 L15.2473684,21.6768698 C15.2157895,19.4729917 14.9,17.8973684 14.3,16.95 C13.6666667,15.95 12.4833333,15.45 10.75,15.45 C10.2166667,15.45 9.65,15.475 9.05,15.525 C8.45,15.575 7.91666667,15.6333333 7.45,15.7 L7.45,15.7 L7.45,36 L-3.90798505e-14,36 L-3.90798505e-14,10.6 L0.324305556,10.5088542 C1.54143519,10.1765625 3.06666667,9.86527778 4.9,9.575 C6.9,9.25833333 9,9.1 11.2,9.1 Z M21.1810837,13.755133 C21.5999446,14.5100443 21.9229167,15.3416667 22.15,16.25 C22.5166667,17.7166667 22.7,19.35 22.7,21.15 L22.7,21.15 L22.7007412,33.1491355 C20.672727,29.9182887 19.5,26.0960969 19.5,22 C19.5,19.1883685 20.0525522,16.5057926 21.0549906,14.0549379 Z" id="Combined-Shape"></path>
            <path d="M69.45,9 C71.05,9 72.5833333,9.14166667 74.05,9.425 C75.5166667,9.70833333 76.6833333,10.0166667 77.55,10.35 L77.55,10.35 L76.25,16.15 L75.721,15.974 C75.0036667,15.7446667 74.2383333,15.5366667 73.425,15.35 C72.4083333,15.1166667 71.2666667,15 70,15 C67.6666667,15 66.5,15.65 66.5,16.95 C66.5,17.25 66.55,17.5166667 66.65,17.75 C66.75,17.9833333 66.95,18.2083333 67.25,18.425 C67.55,18.6416667 67.9583333,18.875 68.475,19.125 C68.9916667,19.375 69.65,19.65 70.45,19.95 C72.0833333,20.55 73.4333333,21.1416667 74.5,21.725 C75.5666667,22.3083333 76.4083333,22.9416667 77.025,23.625 C77.6416667,24.3083333 78.075,25.0666667 78.325,25.9 C78.575,26.7333333 78.7,27.7 78.7,28.8 C78.7,31.4 77.725,33.3666667 75.775,34.7 C73.825,36.0333333 71.0666667,36.7 67.5,36.7 C65.1666667,36.7 63.225,36.5 61.675,36.1 C60.6393182,35.8327273 59.8157082,35.595219 59.2041699,35.3874752 C60.413442,33.7013746 61.4002325,31.8446972 62.121711,29.8606371 C62.6087392,29.9982591 63.102045,30.1191846 63.6,30.225 C64.9333333,30.5083333 66.25,30.65 67.55,30.65 C68.9166667,30.65 69.8833333,30.5166667 70.45,30.25 C71.0166667,29.9833333 71.3,29.4666667 71.3,28.7 C71.3,28.1 70.9333333,27.575 70.2,27.125 C69.4666667,26.675 68.35,26.1666667 66.85,25.6 C65.6833333,25.1666667 64.625,24.7166667 63.675,24.25 C63.5827143,24.2046667 63.4917654,24.1584683 63.4021535,24.1114049 C63.4676824,23.4156837 63.5,22.7116159 63.5,22 C63.5,18.3496049 62.6495913,14.8978334 61.1360807,11.8319923 C61.3693072,11.5927992 61.6242876,11.365557 61.9,11.15 C63.7333333,9.71666667 66.25,9 69.45,9 Z M59.7,29.05 L60.2164678,29.2457379 C59.9154658,30.0645412 59.5649141,30.8594043 59.1684474,31.6266926 L59.7,29.05 Z M61.5,22 C61.5,22.2659469 61.4950564,22.5307392 61.485256,22.79429 L61.25,22.575 C60.5833333,21.925 60.0666667,21.15 59.7,20.25 C59.3333333,19.35 59.15,18.2666667 59.15,17 C59.15,15.7890448 59.3709259,14.7026116 59.8127777,13.7407002 C60.8991713,16.2765588 61.5,19.0681139 61.5,22 Z" id="Combined-Shape"></path>
            <path d="M40.4773663,0 C43.4951989,0 46.3319616,0.573388203 48.9876543,1.72016461 C51.6433471,2.86694102 53.9859396,4.45507545 56.0154321,6.4845679 C58.0449246,8.51406036 59.633059,10.8528807 60.7798354,13.5010288 C61.9266118,16.149177 62.5,18.9821674 62.5,22 C62.5,25.0178326 61.9266118,27.850823 60.7798354,30.4989712 C59.633059,33.1471193 58.0486968,35.4821674 56.026749,37.5041152 C54.0048011,39.5260631 51.6659808,41.1141975 49.0102881,42.2685185 C46.3545953,43.4228395 43.5178326,44 40.5,44 C37.4972565,44 34.6680384,43.4228395 32.0123457,42.2685185 C29.3566529,41.1141975 27.0178326,39.5260631 24.9958848,37.5041152 C22.9739369,35.4821674 21.3858025,33.1471193 20.2314815,30.4989712 C19.0771605,27.850823 18.5,25.0178326 18.5,22 C18.5,18.9821674 19.0733882,16.149177 20.2201646,13.5010288 C21.366941,10.8528807 22.9550754,8.51406036 24.9845679,6.4845679 C27.0140604,4.45507545 29.3566529,2.86694102 32.0123457,1.72016461 C34.6680384,0.573388203 37.4897119,0 40.4773663,0 Z M35.790647,13.2711854 C35.3124648,12.9683617 34.8111447,12.9191528 34.2866868,13.1235589 C33.7622289,13.3279649 33.5,13.6951386 33.5,14.2250801 L33.5,14.2250801 L33.5,29.7372251 C33.5,30.2823078 33.75066,30.6608374 34.2519801,30.872814 C34.7533001,31.0847906 35.2661891,31.0317965 35.790647,30.7138316 L35.790647,30.7138316 L48.7709798,23.2189446 C49.2645872,22.931262 49.5075346,22.5262353 49.499822,22.0038644 C49.4921094,21.4814935 49.249162,21.0764668 48.7709798,20.7887842 L48.7709798,20.7887842 Z" id="􀊖-copy"></path>
        </g>
    </g>
</svg>