<?xml version="1.0" encoding="UTF-8"?>
<svg width="16px" height="16px" viewBox="0 0 16 16" version="1.1" xmlns="http://www.w3.org/2000/svg" xmlns:xlink="http://www.w3.org/1999/xlink">
    <title>right-circle-orange</title>
    <g id="Page-1" stroke="none" stroke-width="1" fill="none" fill-rule="evenodd">
        <g id="home" transform="translate(-893.000000, -164.000000)" fill="#FF4732" fill-rule="nonzero">
            <path d="M900.914062,179.257812 C901.955729,179.257812 902.934896,179.058594 903.851562,178.660156 C904.768229,178.261719 905.575521,177.713542 906.273438,177.015625 C906.971354,176.317708 907.518229,175.511719 907.914062,174.597656 C908.309896,173.683594 908.507812,172.705729 908.507812,171.664062 C908.507812,170.622396 908.309896,169.644531 907.914062,168.730469 C907.518229,167.816406 906.970052,167.009115 906.269531,166.308594 C905.56901,165.608073 904.760417,165.059896 903.84375,164.664062 C902.927083,164.268229 901.947917,164.070312 900.90625,164.070312 C899.875,164.070312 898.901042,164.268229 897.984375,164.664062 C897.067708,165.059896 896.259115,165.608073 895.558594,166.308594 C894.858073,167.009115 894.309896,167.816406 893.914062,168.730469 C893.518229,169.644531 893.320312,170.622396 893.320312,171.664062 C893.320312,172.705729 893.519531,173.683594 893.917969,174.597656 C894.316406,175.511719 894.864583,176.317708 895.5625,177.015625 C896.260417,177.713542 897.067708,178.261719 897.984375,178.660156 C898.901042,179.058594 899.877604,179.257812 900.914062,179.257812 Z M900.914062,177.859375 C900.059896,177.859375 899.257812,177.699219 898.507812,177.378906 C897.757812,177.058594 897.10026,176.615885 896.535156,176.050781 C895.970052,175.485677 895.528646,174.828125 895.210938,174.078125 C894.893229,173.328125 894.734375,172.523438 894.734375,171.664062 C894.734375,170.809896 894.893229,170.007812 895.210938,169.257812 C895.528646,168.507812 895.970052,167.848958 896.535156,167.28125 C897.10026,166.713542 897.75651,166.269531 898.503906,165.949219 C899.251302,165.628906 900.052083,165.46875 900.90625,165.46875 C901.770833,165.46875 902.576823,165.628906 903.324219,165.949219 C904.071615,166.269531 904.729167,166.713542 905.296875,167.28125 C905.864583,167.848958 906.308594,168.507812 906.628906,169.257812 C906.949219,170.007812 907.109375,170.809896 907.109375,171.664062 C907.114583,172.523438 906.955729,173.328125 906.632812,174.078125 C906.309896,174.828125 905.867188,175.485677 905.304688,176.050781 C904.742188,176.615885 904.085938,177.058594 903.335938,177.378906 C902.585938,177.699219 901.778646,177.859375 900.914062,177.859375 Z M899.660156,175.460938 C899.834635,175.455729 899.973958,175.401042 900.078125,175.296875 L903.117188,172.429688 C903.335938,172.226562 903.445312,171.97526 903.445312,171.675781 C903.445312,171.376302 903.335938,171.125 903.117188,170.921875 L900.078125,168.054688 C899.963542,167.945312 899.825521,167.888021 899.664062,167.882812 C899.502604,167.877604 899.367188,167.927083 899.257812,168.03125 C899.132812,168.151042 899.06901,168.294271 899.066406,168.460938 C899.063802,168.627604 899.122396,168.765625 899.242188,168.875 L902.210938,171.671875 L899.242188,174.46875 C899.122396,174.578125 899.0625,174.716146 899.0625,174.882812 C899.0625,175.049479 899.122396,175.192708 899.242188,175.3125 C899.346354,175.416667 899.485677,175.466146 899.660156,175.460938 Z" id="right-circle-orange"></path>
        </g>
    </g>
</svg>