<?xml version="1.0" encoding="UTF-8"?>
<svg width="14px" height="18px" viewBox="0 0 14 18" version="1.1" xmlns="http://www.w3.org/2000/svg" xmlns:xlink="http://www.w3.org/1999/xlink">
    <title>􀈂</title>
    <g id="Page-1" stroke="none" stroke-width="1" fill="none" fill-rule="evenodd">
        <g id="home" transform="translate(-903.000000, -119.000000)" fill="#FF4732" fill-rule="nonzero">
            <g id="Group" transform="translate(823.000000, 49.000000)">
                <path d="M87.3322673,81.640625 C87.5093506,81.640625 87.6603923,81.5768229 87.7853923,81.4492188 C87.9103923,81.3216146 87.9728923,81.1744792 87.9728923,81.0078125 L87.9728923,73.5 L87.9260173,72.40625 L88.4025798,72.9375 L89.4728923,74.0703125 C89.5822673,74.2005208 89.7281006,74.265625 89.9103923,74.265625 C90.0666423,74.265625 90.2020589,74.2135417 90.3166423,74.109375 C90.4312256,74.0052083 90.4885173,73.8723958 90.4885173,73.7109375 C90.4885173,73.5546875 90.4260173,73.4166667 90.3010173,73.296875 L87.8166423,70.890625 C87.7281006,70.8072917 87.6460693,70.75 87.5705485,70.71875 C87.4950277,70.6875 87.4156006,70.671875 87.3322673,70.671875 C87.2489339,70.671875 87.1695068,70.6875 87.093986,70.71875 C87.0184652,70.75 86.9364339,70.8072917 86.8478923,70.890625 L84.3635173,73.296875 C84.2385173,73.4166667 84.1760173,73.5546875 84.1760173,73.7109375 C84.1760173,73.8723958 84.2320068,74.0052083 84.343986,74.109375 C84.4559652,74.2135417 84.5926839,74.265625 84.7541423,74.265625 C84.9312256,74.265625 85.0770589,74.2005208 85.1916423,74.0703125 L86.2619548,72.9375 L86.7463298,72.3984375 L86.6916423,73.5 L86.6916423,81.0078125 C86.6916423,81.1744792 86.7541423,81.3216146 86.8791423,81.4492188 C87.0041423,81.5768229 87.1551839,81.640625 87.3322673,81.640625 Z M91.5744548,87.484375 C92.3661214,87.484375 92.9611735,87.2864583 93.359611,86.890625 C93.7580485,86.4947917 93.9572673,85.9088542 93.9572673,85.1328125 L93.9572673,77.8203125 C93.9572673,77.0442708 93.7580485,76.4570312 93.359611,76.0585938 C92.9611735,75.6601562 92.3661214,75.4609375 91.5744548,75.4609375 L89.5510173,75.4609375 L89.5510173,76.8046875 L91.5197673,76.8046875 C91.8687256,76.8046875 92.1395589,76.8971354 92.3322673,77.0820312 C92.5249756,77.2669271 92.6213298,77.5442708 92.6213298,77.9140625 L92.6213298,85.0390625 C92.6213298,85.4036458 92.5249756,85.6783854 92.3322673,85.8632812 C92.1395589,86.0481771 91.8687256,86.140625 91.5197673,86.140625 L83.1369548,86.140625 C82.7879964,86.140625 82.5184652,86.0481771 82.328361,85.8632812 C82.1382568,85.6783854 82.0432048,85.4036458 82.0432048,85.0390625 L82.0432048,77.9140625 C82.0432048,77.5442708 82.1382568,77.2669271 82.328361,77.0820312 C82.5184652,76.8971354 82.7879964,76.8046875 83.1369548,76.8046875 L85.1135173,76.8046875 L85.1135173,75.4609375 L83.0822673,75.4609375 C82.2958089,75.4609375 81.7020589,75.6588542 81.3010173,76.0546875 C80.8999756,76.4505208 80.6994548,77.0390625 80.6994548,77.8203125 L80.6994548,85.1328125 C80.6994548,85.9088542 80.8999756,86.4947917 81.3010173,86.890625 C81.7020589,87.2864583 82.2958089,87.484375 83.0822673,87.484375 L91.5744548,87.484375 Z" id="􀈂"></path>
            </g>
        </g>
    </g>
</svg>