<?xml version="1.0" encoding="UTF-8"?>
<svg width="15px" height="18px" viewBox="0 0 15 18" version="1.1" xmlns="http://www.w3.org/2000/svg" xmlns:xlink="http://www.w3.org/1999/xlink">
    <title>􀆿</title>
    <g id="Page-1" stroke="none" stroke-width="1" fill="none" fill-rule="evenodd">
        <g id="home" transform="translate(-933.000000, -140.000000)" fill="#FFFFFF" fill-rule="nonzero">
            <g id="Group" transform="translate(823.000000, 49.000000)">
                <path d="M116.884771,95.3046875 C116.978521,95.3046875 117.033209,95.2578125 117.048834,95.1640625 C117.106126,94.8567708 117.156907,94.6158854 117.201178,94.4414062 C117.245448,94.2669271 117.311855,94.1354167 117.400396,94.046875 C117.488938,93.9583333 117.621751,93.8880208 117.798834,93.8359375 C117.975917,93.7838542 118.225917,93.7265625 118.548834,93.6640625 C118.647792,93.6484375 118.697271,93.59375 118.697271,93.5 C118.697271,93.40625 118.647792,93.3515625 118.548834,93.3359375 C118.225917,93.2734375 117.977219,93.2161458 117.80274,93.1640625 C117.628261,93.1119792 117.498053,93.0403646 117.412115,92.9492188 C117.326178,92.8580729 117.259771,92.7265625 117.212896,92.5546875 C117.166021,92.3828125 117.111334,92.1458333 117.048834,91.84375 C117.033209,91.7395833 116.978521,91.6875 116.884771,91.6875 C116.79623,91.6875 116.741542,91.7395833 116.720709,91.84375 C116.663417,92.140625 116.611334,92.3763021 116.564459,92.5507812 C116.517584,92.7252604 116.451178,92.8567708 116.36524,92.9453125 C116.279303,93.0338542 116.149094,93.1041667 115.974615,93.15625 C115.800136,93.2083333 115.551438,93.2682292 115.228521,93.3359375 C115.129563,93.3515625 115.080084,93.40625 115.080084,93.5 C115.080084,93.59375 115.132167,93.6484375 115.236334,93.6640625 C115.554042,93.7317708 115.801438,93.7903646 115.978521,93.8398438 C116.155605,93.8893229 116.288417,93.9583333 116.376959,94.046875 C116.465501,94.1354167 116.530605,94.2669271 116.572271,94.4414062 C116.588938,94.5111979 116.606855,94.5916146 116.626021,94.6826563 L116.687271,94.9876563 C116.698105,95.0438021 116.709251,95.1026042 116.720709,95.1640625 C116.741542,95.2578125 116.79623,95.3046875 116.884771,95.3046875 Z M113.306646,100.4375 C113.379563,100.4375 113.440761,100.415365 113.49024,100.371094 C113.539719,100.326823 113.567063,100.268229 113.572271,100.195312 C113.63998,99.7057292 113.707688,99.3242188 113.775396,99.0507812 C113.843105,98.7773438 113.948573,98.5703125 114.091803,98.4296875 C114.235032,98.2890625 114.451178,98.1809896 114.74024,98.1054688 C115.029303,98.0299479 115.429042,97.9427083 115.939459,97.84375 C116.100917,97.8125 116.181646,97.7239583 116.181646,97.578125 C116.181646,97.5052083 116.158209,97.4453125 116.111334,97.3984375 C116.064459,97.3515625 116.007167,97.3229167 115.939459,97.3125 C115.429042,97.2395833 115.029303,97.1679688 114.74024,97.0976562 C114.451178,97.0273438 114.235032,96.921875 114.091803,96.78125 C113.948573,96.640625 113.843105,96.4270833 113.775396,96.140625 C113.707688,95.8541667 113.63998,95.4609375 113.572271,94.9609375 C113.556646,94.7942708 113.468105,94.7109375 113.306646,94.7109375 C113.150396,94.7109375 113.061855,94.796875 113.041021,94.96875 C112.98373,95.4635417 112.92123,95.8463542 112.853521,96.1171875 C112.785813,96.3880208 112.679042,96.5924479 112.533209,96.7304688 C112.387376,96.8684896 112.168626,96.9765625 111.876959,97.0546875 C111.585292,97.1328125 111.186855,97.21875 110.681646,97.3125 C110.520188,97.3385417 110.439459,97.4270833 110.439459,97.578125 C110.439459,97.7291667 110.530605,97.8177083 110.712896,97.84375 C111.212896,97.921875 111.606126,97.9986979 111.892584,98.0742188 C112.179042,98.1497396 112.393886,98.2578125 112.537115,98.3984375 C112.680344,98.5390625 112.785813,98.7486979 112.853521,99.0273438 C112.92123,99.3059896 112.98373,99.6927083 113.041021,100.1875 C113.061855,100.354167 113.150396,100.4375 113.306646,100.4375 Z M118.384771,108.609375 C118.48373,108.609375 118.568365,108.575521 118.638678,108.507812 C118.70899,108.440104 118.751959,108.354167 118.767584,108.25 C118.871751,107.442708 118.988938,106.763021 119.119146,106.210938 C119.249355,105.658854 119.422532,105.204427 119.638678,104.847656 C119.854823,104.490885 120.138678,104.204427 120.49024,103.988281 C120.841803,103.772135 121.289719,103.602865 121.83399,103.480469 C122.378261,103.358073 123.048834,103.252604 123.845709,103.164062 C123.955084,103.148438 124.044928,103.104167 124.11524,103.03125 C124.185553,102.958333 124.220709,102.872396 124.220709,102.773438 C124.220709,102.669271 124.185553,102.580729 124.11524,102.507812 C124.044928,102.434896 123.955084,102.393229 123.845709,102.382812 C123.048834,102.294271 122.379563,102.1875 121.837896,102.0625 C121.29623,101.9375 120.849615,101.768229 120.498053,101.554688 C120.14649,101.341146 119.862636,101.05599 119.64649,100.699219 C119.430344,100.342448 119.255865,99.8867188 119.123053,99.3320312 C118.99024,98.7773438 118.871751,98.0989583 118.767584,97.296875 C118.746751,97.1875 118.70248,97.1002604 118.634771,97.0351562 C118.567063,96.9700521 118.48373,96.9375 118.384771,96.9375 C118.275396,96.9375 118.186855,96.9700521 118.119146,97.0351562 C118.051438,97.1002604 118.009771,97.1875 117.994146,97.296875 C117.884771,98.0989583 117.76498,98.7773438 117.634771,99.3320312 C117.504563,99.8867188 117.332688,100.342448 117.119146,100.699219 C116.905605,101.05599 116.621751,101.341146 116.267584,101.554688 C115.913417,101.768229 115.464198,101.9375 114.919928,102.0625 C114.375657,102.1875 113.705084,102.294271 112.908209,102.382812 C112.798834,102.393229 112.710292,102.434896 112.642584,102.507812 C112.574876,102.580729 112.541021,102.669271 112.541021,102.773438 C112.541021,102.872396 112.574876,102.958333 112.642584,103.03125 C112.710292,103.104167 112.798834,103.148438 112.908209,103.164062 C113.699876,103.268229 114.366542,103.384115 114.908209,103.511719 C115.449876,103.639323 115.89649,103.808594 116.248053,104.019531 C116.599615,104.230469 116.883469,104.513021 117.099615,104.867188 C117.315761,105.221354 117.49024,105.671875 117.623053,106.21875 C117.755865,106.765625 117.879563,107.442708 117.994146,108.25 C118.009771,108.354167 118.05274,108.440104 118.123053,108.507812 C118.193365,108.575521 118.280605,108.609375 118.384771,108.609375 Z" id="􀆿"></path>
            </g>
        </g>
    </g>
</svg>